<svg xmlns="http://www.w3.org/2000/svg" viewBox="0 0 150 46">
<!-- SVG created with Arrow, by QuiverAI (https://quiver.ai) -->
  <style type="text/css">.cls-0 {fill:#00C3F7;}</style>
  <path d="m1.6 16.5h6.2v14.2h0.1c0.7-1.8 2.5-3.4 5.1-3.4 4.9 0 8.2 4 8.2 9 0 4.9-3.5 8.9-8.4 8.9-2.5 0-4.3-1.2-5.1-3.4l-0.2 2.9h-5.9v-0.8h2.7v-26.6h-2.7v-0.8zm10.9 27.8c3.4 0 4.4-2.4 4.4-7.8 0-5-1-8.4-4.4-8.4s-4.8 3.1-4.8 7.5c0 4.9 1.3 8.7 4.8 8.7z"/>
  <path d="m26.6 28.5h-2.9v-0.8h6.8v3.8h0.1c0.7-1.9 2.1-4.1 5.1-4.1 2.4 0 3.7 1.4 3.7 3.2 0 1.6-0.9 2.5-2.1 2.5-1 0-1.9-0.4-1.9-1.5 0-0.4 0.4-1.6 0.4-1.9 0-0.6-0.4-1.2-1.2-1.2-1.6 0-4 2.4-4 6.7v8.7h3.3v0.8h-10.3v-0.8h2.9l0.1-15.4z"/>
  <path d="m51.3 35.3c-3.1 1.6-6.9 1.4-6.9 5.7 0 2.2 1.1 3.1 2.9 3.1 2.5 0 4-2.2 4-5.1v-3.7zm4 6.9c0 1 0.2 1.9 1.2 1.9s1.5-0.7 1.7-0.7l0.5 0.6c-0.5 0.6-1.7 1.2-3.3 1.2-2.2 0-3.6-0.9-3.9-2.9h-0.1c-0.8 2-2.6 3-5.5 3-3.2 0-5.5-1.3-5.5-4.1 0-3.9 3.8-4.5 7-5.4 1.7-0.4 4-0.8 4-3.2v-1c0-2-0.7-3.5-3.4-3.5-1.4 0-2.8 0.6-2.8 2.3 0 0.8 0.3 1.3 0.3 1.8 0 0.8-0.6 1.4-1.8 1.4-1.6 0-2.1-0.8-2.1-1.9 0-2.1 2.2-4.4 6.8-4.4 5.4 0 6.9 2.6 6.9 5.5v9.4z"/>
  <path d="m64.3 16.6c1.2 0 2.3 1 2.3 2.3 0 1.2-1 2.3-2.3 2.3-1.2 0-2.3-1-2.3-2.3s1-2.3 2.3-2.3zm-1.9 12h-2.8v-0.8h6.7v16.1h2.9v0.8h-9.6v-0.8h2.8v-15.3z"/>
  <path d="m73.7 43.8v-15.2h-3v-0.8h6.7v3.8h0.1c0.9-1.8 2.6-4.2 6.5-4.2 4.2 0 6.3 2.1 6.3 5.3v11.2h3.1v0.8h-10.1v-0.8h3v-11.7c0-2.3-0.9-3.9-3.2-3.9-3.2 0-5.6 3-5.6 7.2v8.4h2.9v0.8h-9.7v-0.8l3-0.1z"/>
  <path d="m97.8 28.5h-2.9v-0.8h6.8v3.8c0.8-1.9 2.2-4.1 5-4.1 2.4 0 3.9 1.3 3.9 3.2 0 1.6-1 2.5-2.1 2.5-1 0-2-0.4-2-1.5 0-0.4 0.4-1.6 0.4-1.9 0-0.6-0.3-1.3-1.1-1.3-1.6 0-3.9 2.6-3.9 6.8v8.7h3v0.8h-10.1v-0.8h3v-15.4z"/>
  <path d="m120.9 27.3c5.2 0 9.9 3.5 9.8 9 0 4.9-4 9-9.5 9-4.5 0-9.2-3.5-9.3-8.8 0.1-4.9 4-9.2 9-9.2zm-4.5 9.2c0 4.7 1.2 7.8 4.7 7.8s5.2-2 5.2-7.5c0-5.1-1.5-8.7-5.2-8.7-3.6 0-4.7 2.6-4.7 8.4z"/>
  <path d="m135.6 22.5c1.2 0.6 2.6 0.7 3.3-0.2h0.4v5.5h5.2v0.8h-5.2v12.4c0 2.1 0.6 3.3 2.1 3.3 1.9 0 2.9-1.5 3.1-3.2l0.8 0.2c-0.5 2.6-1.9 4-4.7 4-3.8 0-4.9-1.7-4.9-4.5v-12.2h-3v-0.8h2.9v-5.3z"/>
  <path class="cls-0" d="m147.3 30.1c-0.6 0-18.9 0.7-31.6 2.1-11.7 1.2-22.4 2.8-22.6 2.9-0.7 0.3-0.4 1.7 0.6 1.8l2.6-0.3c-1.4 0.4-4 0.8-4.4 1-0.6 0.4 0.3 2.9 1.4 2.4 1.1-0.4 16.7-2.3 20.9-2.6 8.1-1 31.3-2.3 32.5-2.3 0.8-0.3 0.2-1.1 0.2-1.7l1.2-0.1c-0.3-0.7 0.5-0.7-0.2-2.1-0.1-0.2-0.4-1.1-0.6-1.1z"/>
  <path class="cls-0" d="m97.7 0.9c0-0.7 0.4-0.9 1-0.9 1.3 0 1.6 0.9 1.6 1.9l-0.2 5.3c0 0.4 0.2 0.7 0.5 0.7l1.4-0.4c0.4-0.1 0.9-0.2 1.3-0.2 0.6 0 1 0.3 1 0.9 0 1.1-0.7 1.3-1.8 1.5-1.3 0.3-2.5 0.4-2.5 1.4 0 2.9 0.4 6.8 0.8 8.5 0.1 0.5 0.2 0.9 0.2 1.3 0 0.9-0.6 1.2-1.4 1.2-2 0-1.7-3-1.9-7.1l-0.1-3.5-1.8 0.4c-0.9 0-1.8-0.8-1.8-1.5 0-0.6 0.4-0.8 1-0.9l2.6-0.8 0.1-7.8z"/>
  <path class="cls-0" d="m112.4 8.7c-1.3 0-2.3 2.4-3.5 4.2l-0.9-0.1s0.4-3.9-1.4-3.9c-1.3 0-1.5 0.4-1.3 1.5 0.4 2.7 0.3 8.3 0.2 10.5 0 0.7 0.6 1.1 1.5 1.1 1.9 0.1 1.6-2.1 1.6-4.3 0-0.7 2.7-5.6 4.1-6.4 2.7-1.3 1-2.6-0.3-2.6z"/>
  <path class="cls-0" d="m119.7 9.5c-1.7-1-3.2 0.1-4.4 2-0.6 1.3-1.4 3.8-1.4 5.1 0 3.1 3 5.1 4.8 5.1 2.2 0.1 5.2-3.3 5.3-7.1 0-3.3-2.6-4.7-4.3-5.1zm-1.3 9.6c-1.4 0-1.9-1.4-1.9-2.5 0-0.8 0.4-2.2 0.4-2.9 0.5-0.6 1.3-1.9 1.9-1.9 0.9 0.1 2.4 0.3 2.4 2.6 0 2.1-1.7 4.7-2.8 4.7z"/>
  <path class="cls-0" d="m127.9 0c1.6 0 2.6 0.5 2.5 2.2l-0.2 5c0 0.3 0.2 0.6 0.5 0.6l1.4-0.4c0.4-0.1 0.8-0.1 1.2-0.1 0.7 0.1 1.3 0.8 0.9 1.7-0.3 0.9-3.9 0.7-3.9 1.9 0 3 0.1 6 0.8 9 0.2 1.1 0.3 2.2-1.3 2.2-2 0-1.8-3.1-2-7.2l-0.1-3.5-1.8 0.5c-1 0-2-0.8-2-1.5s0.4-0.8 1-1l2.7-0.7 0.3-8.7z"/>
</svg>